<svg width="266" height="310" viewBox="0 0 266 310" fill="none" xmlns="http://www.w3.org/2000/svg">
<g clip-path="url(#clip0_694_1990)">
<path d="M263.477 183.286C263.477 156.377 245.966 133.449 221.436 124.709C222.122 122.235 222.491 119.63 222.491 116.937C222.491 102.499 211.999 90.4568 198.033 87.6332C200.595 80.8885 201.998 73.625 201.998 66.0523C201.998 30.7824 182.53 2.19739 134.371 2.19739C82.114 2.19739 66.7442 30.7824 66.7442 66.0523C66.7442 73.4055 68.0763 80.4595 70.5047 87.0346C54.1615 87.733 41.1279 100.843 41.1279 116.937C41.1279 121.656 42.2551 126.116 44.2429 130.077C20.2455 139.076 3.21582 161.735 3.21582 188.274C3.21582 210.524 15.194 230.04 33.1971 241.074C32.7975 243.08 32.5823 245.145 32.5823 247.26C32.5823 265.15 47.4808 279.657 65.8528 279.657C71.099 279.657 76.0583 278.469 80.4746 276.364C91.5511 294.972 112.218 307.504 135.898 307.504C159.578 307.504 180.583 294.772 191.598 275.905C196.24 278.3 201.527 279.657 207.142 279.657C225.524 279.657 240.413 265.15 240.413 247.26C240.413 242.362 239.296 237.722 237.298 233.562C253.159 222.207 263.467 203.919 263.467 183.286H263.477Z" fill="white"/>
<path d="M263.324 183.286C263.488 157.464 245.895 133.279 220.74 125.068C225.474 108.995 214.705 91.7737 197.818 88.6508L196.609 88.4114C198.618 83.1733 199.96 77.6957 200.503 72.1383C202.665 45.8381 192.275 18.7796 165.532 8.67258C146.699 1.50886 121.646 1.53879 102.577 7.84446C76.9915 16.5447 67.6569 38.9138 67.2982 63.7374C67.0113 71.7991 68.2512 79.9007 71.1919 87.4635C49.3259 87.9624 35.0627 110.661 44.8789 129.777L45.2067 130.426L44.4997 130.695C22.6234 138.867 6.51589 159.62 4.68176 182.358C2.30457 204.956 14.1291 228.004 33.9663 239.877L34.8065 240.386C33.4745 246.302 33.9151 252.578 36.1386 258.225C40.2474 269.001 50.955 276.953 62.7078 277.951C69.0709 278.579 75.516 277.202 81.1311 274.279C86.6539 284.037 94.9024 292.318 104.831 297.875C134.597 314.996 174.764 303.862 191.127 274.259C203.075 281.203 219.398 279.587 229.501 270.128C239.645 261.179 242.739 245.834 236.909 233.741L236.755 233.412L237.042 233.202C253.355 221.908 263.365 202.751 263.314 183.276L263.324 183.286ZM263.632 183.286C263.867 202.961 253.795 222.207 237.575 233.911L237.718 233.382C244.01 245.794 241.048 261.797 230.679 271.326C220.504 281.223 203.741 283.648 191.025 276.993L192.705 276.514C187.121 286.232 178.862 294.493 169.005 300.2C149.26 311.854 123.162 311.893 103.243 300.579C93.2732 295.012 84.8505 286.86 79.0715 277.172L81.2028 277.801C75.4135 280.595 68.8045 281.682 62.4004 281.054C49.5 279.876 37.7985 271.116 33.3515 259.273C31.087 253.416 30.5337 246.941 31.7838 240.815L32.4293 242.272C11.7928 229.82 -0.339034 205.635 2.36605 182.158C4.5793 158.742 21.4348 137.61 43.9977 129.468L43.6288 130.386C33.8741 110.79 48.0655 87.4336 70.4747 86.5855L70.0443 87.2041C68.2204 82.1955 67.0216 76.9773 66.5093 71.6894C65.0133 50.9166 69.5832 27.1905 87.5249 13.9206C107.208 -0.955541 143.799 -2.28252 166.474 6.33788C194.693 16.9937 205.329 44.6109 202.86 72.3778C202.296 77.7157 201.005 82.9837 199.027 87.9923L198.239 86.6055C210.954 89.1696 221.273 99.9751 222.861 112.527C223.435 116.637 223.138 120.858 222 124.849L221.631 124.16C246.407 133 264.031 157.534 263.622 183.276L263.632 183.286Z" fill="#444341"/>
<path d="M223.581 129.531C223.581 129.531 252.741 114.027 259.402 101.126C265.293 89.7019 274.131 60.6379 243.324 50.7903C218.358 42.8084 204.417 65.7463 200.024 78.4175C197.687 85.1522 195.08 91.7771 192.074 98.2424L185.873 111.572" fill="white"/>
<path d="M223.511 129.402C230.571 124.862 237.562 120.213 243.973 114.905C248.686 111.023 253.43 106.983 256.675 101.864C261.259 93.4334 263.935 82.7177 262.238 73.1994C260.75 64.3395 254.269 57.954 246.11 54.6814C230.801 47.837 217.399 53.544 208.132 66.8338C204.487 71.8325 202.121 77.4796 199.954 83.2864C197.647 89.173 194.871 94.92 191.925 100.497C190.497 103.271 187.511 108.888 186.013 111.632L185.743 111.502L191.036 100.078C192.823 96.2769 194.511 92.4456 196.059 88.5445C199.195 80.7721 201.342 72.491 206.215 65.5368C216.361 50.0819 231.64 44.5245 248.736 52.5463C257.005 56.208 263.666 63.5812 265.034 72.6905C266.681 83.0769 263.775 94.0619 258.493 103.022C254.928 108.27 249.925 112.32 244.941 116.152C238.191 121.16 231.041 125.61 223.671 129.641L223.531 129.382L223.511 129.402Z" fill="#444341"/>
<path d="M44.159 134.562C44.159 134.562 14.9992 118.55 8.33844 105.227C2.44658 93.4285 -6.39122 63.4129 24.4162 53.2428C49.3818 44.9996 63.3225 68.6886 67.7165 81.7747C70.0532 88.7299 72.6596 95.5718 75.6655 102.249L81.8669 116.015" fill="white"/>
<path d="M44.0899 134.696C36.4205 131.007 29.1106 126.649 22.0903 121.765C16.8875 117.87 11.6447 113.696 7.82997 108.174C-3.16485 89.956 -4.52297 64.5256 16.508 53.6137C34.8327 43.8969 52.3385 49.5023 63.1037 67.4108C67.8671 74.8503 69.8943 83.5366 72.8103 91.7798C75.4965 99.9303 79.0417 107.813 82.0076 115.943L81.7379 116.077L76.4153 104.299C74.6178 100.384 72.9201 96.4166 71.3523 92.3877C68.1966 84.3815 66.0396 75.891 61.1763 68.74C50.7407 52.3978 34.9925 47.1839 17.8861 56.3545C5.52316 62.5679 0.949472 75.2727 3.3162 88.8122C4.39472 95.1389 6.362 101.476 9.63748 106.958C13.1526 112.336 18.1158 116.509 23.049 120.456C29.7697 125.639 36.8998 130.245 44.2397 134.428L44.0999 134.696H44.0899Z" fill="#444341"/>
<path d="M88.0684 35.1224C88.0684 35.1224 93.0615 48.093 111.376 48.7016C128.013 49.2503 134.005 35.1224 134.005 35.1224C134.005 35.1224 137.999 48.093 157.972 48.093C180.94 48.093 179.942 35.1224 179.942 35.1224" fill="white"/>
<path d="M88.0684 35.1224C88.0684 35.1224 93.0615 48.093 111.376 48.7016C128.013 49.2503 134.005 35.1224 134.005 35.1224C134.005 35.1224 137.999 48.093 157.972 48.093C180.94 48.093 179.942 35.1224 179.942 35.1224" stroke="#444341" stroke-miterlimit="10"/>
<path d="M122.521 31.1315C123.349 31.1315 124.019 28.898 124.019 26.1428C124.019 23.3877 123.349 21.1542 122.521 21.1542C121.694 21.1542 121.023 23.3877 121.023 26.1428C121.023 28.898 121.694 31.1315 122.521 31.1315Z" fill="#444341" stroke="#444341" stroke-miterlimit="10"/>
<path d="M143.492 31.1315C144.319 31.1315 144.99 28.898 144.99 26.1428C144.99 23.3877 144.319 21.1542 143.492 21.1542C142.665 21.1542 141.994 23.3877 141.994 26.1428C141.994 28.898 142.665 31.1315 143.492 31.1315Z" fill="#444341" stroke="#444341" stroke-miterlimit="10"/>
<path d="M134.006 99.1867C77.3937 99.1867 97.9354 45.5387 97.9354 45.5387C97.9354 45.5387 107.203 49.0407 113.614 48.6815C124.019 48.1028 127.245 43.7328 129.132 41.9269C131.02 40.121 134.016 35.1323 134.016 35.1323C134.016 35.1323 135.853 40.5301 139.927 42.8149C144.002 45.0997 148.995 48.1028 157.982 48.1028C166.97 48.1028 169.966 47.1051 169.966 47.1051C169.966 47.1051 190.737 99.1967 133.506 99.1967" fill="#333333"/>
<path d="M134.006 99.1867C77.3937 99.1867 97.9354 45.5387 97.9354 45.5387C97.9354 45.5387 107.203 49.0407 113.614 48.6815C124.019 48.1028 127.245 43.7328 129.132 41.9269C131.02 40.121 134.016 35.1323 134.016 35.1323C134.016 35.1323 135.853 40.5301 139.927 42.8149C144.002 45.0997 148.995 48.1028 157.982 48.1028C166.97 48.1028 169.966 47.1051 169.966 47.1051C169.966 47.1051 190.737 99.1967 133.506 99.1967" stroke="#444341" stroke-miterlimit="10"/>
</g>
<defs>
<clipPath id="clip0_694_1990">
<rect width="266" height="310" fill="white"/>
</clipPath>
</defs>
</svg>
