<svg width="141" height="130" viewBox="0 0 141 130" fill="none" xmlns="http://www.w3.org/2000/svg">
<path d="M13.61 128.18C21.1266 128.18 27.22 121.97 27.22 114.31C27.22 106.65 21.1266 100.44 13.61 100.44C6.0934 100.44 0 106.65 0 114.31C0 121.97 6.0934 128.18 13.61 128.18Z" fill="white"/>
<path d="M141 73.0001C141 66.9801 137.86 61.7001 133.13 58.6801C133.23 58.2701 133.35 57.8701 133.44 57.4601C139.03 32.1801 123.44 7.07008 98.62 1.38008C81.6 -2.51992 64.68 3.73008 53.92 16.1901C52.62 14.7301 51.02 13.5501 49.22 12.7401C46.56 11.0201 43.4 10.0101 40 10.0101C30.61 10.0101 23 17.6201 23 27.0101C23 30.0501 23.81 32.9001 25.2 35.3601C17.79 40.6901 12.22 48.7101 10.07 58.4401C6.16004 76.1301 14.81 93.7101 30 101.54C30.02 113.95 40.08 124.01 52.5 124.01C57.98 124.01 63 122.05 66.9 118.8C68.25 118.35 69.5 117.7 70.63 116.89C75.02 122.71 81.35 127.07 88.94 128.81C106.2 132.77 123.35 121.72 127.24 104.14C128.33 99.2201 130.05 91.6201 129 87.0201C136.86 85.5201 141 81.3101 141 73.0201V73.0001Z" fill="white"/>
<path d="M94.2201 36.1201C94.2201 38.8401 92.7001 41.0401 90.8301 41.0401C88.9601 41.0401 90.8301 39.8201 90.8301 37.1001C90.8301 34.3801 88.9601 31.1901 90.8301 31.1901C92.7001 31.1901 94.2201 33.3901 94.2201 36.1101V36.1201Z" fill="#444341"/>
<path d="M110 36.1201C110 38.8401 108.48 41.0401 106.61 41.0401C104.74 41.0401 106.61 39.8201 106.61 37.1001C106.61 34.3801 104.74 31.1901 106.61 31.1901C108.48 31.1901 110 33.3901 110 36.1101V36.1201Z" fill="#444341"/>
</svg>
