<svg width="456" height="419" viewBox="0 0 456 419" fill="none" xmlns="http://www.w3.org/2000/svg">
<path d="M45.9773 412.376C22.0725 412.376 2.69377 392.627 2.69377 368.266C2.69377 343.904 22.0725 324.156 45.9773 324.156C69.8821 324.156 89.2607 343.904 89.2607 368.266C89.2607 392.627 69.8821 412.376 45.9773 412.376Z" fill="white"/>
<path d="M451.121 236.857C451.121 217.712 441.135 200.92 426.092 191.315C426.41 190.011 426.792 188.739 427.078 187.435C444.856 107.038 395.276 27.1816 316.341 9.08587C262.213 -3.31719 208.403 16.5595 174.183 56.1857C170.049 51.5425 164.96 47.7898 159.236 45.2137C150.776 39.7437 140.727 36.5316 129.914 36.5316C100.051 36.5316 75.8491 60.7335 75.8491 90.5962C75.8491 100.264 78.4252 109.328 82.8458 117.151C59.28 134.102 41.5658 159.608 34.7282 190.552C22.2934 246.811 49.8027 302.72 98.111 327.622C98.1746 367.089 130.168 399.082 169.667 399.082C187.095 399.082 203.06 392.849 215.463 382.513C219.756 381.082 223.732 379.015 227.325 376.439C241.287 394.948 261.418 408.814 285.556 414.348C340.448 426.942 394.989 391.8 407.361 335.89C410.827 320.244 416.297 296.074 412.958 281.444C437.955 276.674 451.121 263.285 451.121 236.92V236.857Z" fill="white"/>
<path d="M268.215 92.6016C259.247 106.309 263.667 130.32 284.275 127.108C299.509 123.673 306.41 106.849 305.17 92.7925L304.407 92.5698C300.24 103.033 294.77 116.295 282.844 119.316C268.533 121.669 268.024 102.651 269.01 92.7606L268.215 92.6334V92.6016Z" fill="#444341"/>
<path d="M322.633 92.4091C313.665 106.116 318.085 130.127 338.693 126.915C353.927 123.48 360.828 106.657 359.588 92.5999L358.825 92.3773C354.658 102.84 349.188 116.102 337.262 119.123C322.951 121.477 322.442 102.459 323.428 92.5681L322.633 92.4409V92.4091Z" fill="#444341"/>
</svg>
